<?xml version="1.0" encoding="utf-8"?>
<!-- Generator: Adobe Illustrator 26.0.1, SVG Export Plug-In . SVG Version: 6.00 Build 0)  -->
<svg version="1.1" id="Layer_1" xmlns="http://www.w3.org/2000/svg" xmlns:xlink="http://www.w3.org/1999/xlink" x="0px" y="0px"
	 viewBox="0 0 128 128" style="enable-background:new 0 0 128 128;" xml:space="preserve">
<style type="text/css">
	.st0{fill:#34A853;}
</style>
<path class="st0" d="M64,0C28.7,0,0,28.7,0,64s28.7,64,64,64s64-28.7,64-64S99.3,0,64,0z M64,122C32,122,6,96,6,64S32,6,64,6
	s58,26,58,58S96,122,64,122z"/>
<path class="st0" d="M92.3,52.3V35.7H75.7L64,24L52.3,35.7H35.7v16.6L24,64l11.7,11.7v16.6h16.6L64,104l11.7-11.7h16.6V75.7L104,64
	L92.3,52.3z M70.9,48.1l2.3,3.1l3.7-1.2l-2.3,3.1l2.3,3.1L73.2,55l-2.3,3.1v-3.9L67.2,53l3.7-1.2C70.9,51.8,70.9,48.1,70.9,48.1z
	 M61.2,43.2c2.4,0,4.7,0.9,6.4,2.3c-0.7-0.2-1.4-0.3-2.2-0.3c-4.4,0-8,3.6-8,8s3.6,8,8,8c0.7,0,1.5-0.1,2.2-0.3
	c-1.7,1.4-4,2.3-6.4,2.3c-5.5,0-10-4.5-10-10C51.2,47.7,55.6,43.2,61.2,43.2z M79,84c-4.8-0.8-9.6,0.5-13.3,3.6L64,89l-1.7-1.4
	c-3.7-3.1-8.6-4.4-13.3-3.6V66.5c4.8-0.8,9.6,0.5,13.3,3.6l1.7,1.4l1.7-1.4c3.7-3.1,8.6-4.4,13.3-3.6V84z"/>
<g>
	<path d="M27.9,34.8c0.7-0.8,1-1.7,0.9-2.7c-0.1-0.9-0.5-1.7-1.4-2.4c-0.8-0.7-1.7-1-2.6-0.9s-1.7,0.6-2.4,1.4L21,31.9l5.5,4.6
		L27.9,34.8z M22.3,31.8l0.8-1c0.5-0.6,1.1-1,1.8-1.1s1.3,0.2,2,0.7s1,1.1,1.1,1.8s-0.2,1.3-0.7,2l-0.8,1L22.3,31.8z"/>
	<rect x="28.5" y="24.9" transform="matrix(0.7113 -0.7029 0.7029 0.7113 -11.6469 28.5643)" width="0.9" height="7.2"/>
	<polygon points="34.7,28 32.1,20.8 31.3,21.5 33.5,27.2 33.5,27.3 28.2,24 27.5,24.7 34,28.6 	"/>
	<rect x="35.3" y="19.1" transform="matrix(0.8254 -0.5646 0.5646 0.8254 -6.58 24.1414)" width="0.9" height="7.2"/>
	<path d="M38.3,20.9c0.2,0,0.5-0.1,1.1-0.2s1-0.1,1.3-0.1c0.3,0.1,0.5,0.2,0.7,0.5s0.2,0.6,0.1,0.9c-0.1,0.3-0.4,0.6-0.7,0.8
		c-0.2,0.1-0.3,0.2-0.5,0.2s-0.4,0-0.6,0c-0.2,0-0.4-0.1-0.5-0.2c-0.2-0.1-0.3-0.2-0.5-0.4l-0.6,0.7c0.4,0.4,1,0.7,1.5,0.8
		c0.6,0.1,1.1,0,1.6-0.3c0.6-0.3,1-0.8,1.2-1.3c0.2-0.6,0.2-1.1-0.1-1.7c-0.3-0.5-0.6-0.8-1.1-0.9s-1-0.2-1.8,0
		c-0.7,0.1-1.3,0.2-1.5,0.1c-0.3-0.1-0.4-0.2-0.6-0.4c-0.1-0.3-0.2-0.5,0-0.8c0.1-0.3,0.3-0.5,0.6-0.7s0.6-0.2,0.9-0.2
		c0.3,0,0.5,0.2,0.7,0.3l0.6-0.7c-0.3-0.3-0.7-0.5-1.2-0.5s-1,0.1-1.4,0.3c-0.5,0.3-0.9,0.7-1.1,1.3c-0.2,0.5-0.1,1,0.1,1.5
		C36.9,20.7,37.5,21,38.3,20.9z"/>
	<rect x="42.5" y="15" transform="matrix(0.9073 -0.4204 0.4204 0.9073 -3.8419 19.7759)" width="0.9" height="7.2"/>
	<polygon points="52.5,19 53.6,18.6 53.5,18.6 49.7,15.6 51.3,11.9 51.3,11.8 50.2,12.2 48.2,16.6 48.2,16.6 47.1,13.1 46.2,13.4 
		48.3,20.2 49.2,20 48.6,18 49.3,16.4 	"/>
	<polygon points="58.2,17.9 58.1,17 54.9,17.6 54.5,15.3 57.4,14.8 57.2,14 54.3,14.5 53.9,12.2 57.2,11.7 57,10.8 52.9,11.5 
		54.1,18.6 	"/>
	<path d="M62.1,14.7L62.1,14.7c0.5-0.2,0.9-0.4,1.2-0.8c0.3-0.4,0.4-0.8,0.4-1.3c0-0.6-0.3-1.1-0.7-1.5c-0.5-0.4-1-0.6-1.6-0.5
		L59,10.7l0.4,7.1h0.9l-0.2-2.9l1-0.1l2.1,2.8l1.1-0.1l0,0L62.1,14.7z M60,14l-0.1-2.5l1.5-0.1c0.4,0,0.7,0.1,0.9,0.3
		s0.4,0.5,0.4,0.9s-0.1,0.7-0.3,0.9c-0.2,0.3-0.6,0.4-0.9,0.4L60,14z"/>
	<path d="M68.1,17.9c1,0.1,1.9-0.2,2.7-0.8c0.8-0.6,1.2-1.5,1.3-2.6c0.1-1.1-0.2-2-0.8-2.7c-0.6-0.8-1.5-1.2-2.5-1.3
		s-1.9,0.2-2.7,0.8c-0.8,0.6-1.2,1.5-1.3,2.6s0.2,2,0.8,2.7C66.3,17.4,67.1,17.8,68.1,17.9z M66.7,12c0.6-0.5,1.2-0.7,2-0.6
		c0.8,0.1,1.4,0.4,1.9,1s0.7,1.3,0.6,2.1s-0.4,1.5-1,2s-1.2,0.7-2,0.6s-1.4-0.4-1.9-1s-0.7-1.3-0.6-2.1C65.8,13.1,66.1,12.5,66.7,12
		z"/>
	<polygon points="78.6,12.4 77.9,15.4 74.4,14.5 75.2,11.6 74.3,11.3 72.6,18.3 73.5,18.5 74.2,15.4 77.7,16.2 76.9,19.4 77.8,19.6 
		79.5,12.6 	"/>
	<path d="M79.4,20.1l1.4-1.5l2.8,1.1l-0.1,2.1l0.9,0.4l0.2-7.7l-1-0.4l-5.2,5.6L79.4,20.1z M83.7,15.4L83.7,15.4l-0.1,3.4l-2.2-0.9
		L83.7,15.4z"/>
	<polygon points="88,19.1 88.7,17.9 88.7,17.9 88.9,24.8 89.7,25.3 93.3,19.1 92.5,18.6 90.4,22.2 89.8,23.4 89.7,23.4 89.5,16.9 
		88.6,16.3 85,22.5 85.8,22.9 	"/>
	<rect x="89.6" y="22.9" transform="matrix(0.5843 -0.8115 0.8115 0.5843 19.8033 85.3025)" width="7.2" height="0.9"/>
	<path d="M92.9,27.6l1.8-1l2.3,2l-0.8,1.9l0.8,0.7l2.7-7.2l-0.8-0.7L92.2,27L92.9,27.6z M98.5,24.5L98.5,24.5l-1.2,3.2l-1.8-1.6
		L98.5,24.5z"/>
	<polygon points="98,32.3 101.4,29.4 102.4,28.5 102.4,28.5 100.4,35.1 101,35.8 106.4,31.1 105.8,30.4 102.6,33.2 101.6,34.1 
		101.6,34.1 103.5,27.8 102.8,27 97.4,31.6 	"/>
	<path d="M19.3,42.7c0.3-0.1,0.5-0.3,0.7-0.6c0.1-0.3,0.2-0.6,0.1-0.9s-0.3-0.5-0.6-0.7c-0.3-0.1-0.6-0.2-0.9-0.1
		c-0.3,0.1-0.5,0.3-0.7,0.6s-0.2,0.6-0.1,0.9s0.3,0.5,0.6,0.7C18.7,42.8,19,42.8,19.3,42.7z"/>
	<path d="M14.9,51.2c-0.2,0.6-0.1,1.2,0.2,1.7s0.7,0.9,1.3,1c0.6,0.2,1.1,0.1,1.6-0.2s0.8-0.8,1-1.4l0.6-2.4l-6.9-1.8L12.5,49
		l2.8,0.8L14.9,51.2z M16.2,50l2.4,0.6l-0.4,1.5c-0.1,0.4-0.3,0.6-0.6,0.8c-0.3,0.2-0.6,0.2-0.9,0.1c-0.3-0.1-0.6-0.3-0.8-0.6
		s-0.2-0.6-0.1-1L16.2,50z"/>
	<polygon points="12,55.2 14.3,55.6 13.8,58.5 14.7,58.6 15.1,55.7 17.4,56 16.9,59.3 17.8,59.4 18.4,55.2 11.3,54.2 10.7,58.3 
		11.5,58.5 	"/>
	<polygon points="17.5,66.3 13.2,63.8 13.2,63.7 17.6,61.3 17.6,60.4 10.5,60.3 10.5,61.2 14.7,61.3 15.9,61.2 15.9,61.3 11.9,63.5 
		11.9,64 15.8,66.3 15.8,66.3 14.6,66.3 10.4,66.2 10.4,67.1 17.5,67.2 	"/>
	<path d="M13.4,74c0.4-0.1,0.7-0.2,1-0.5s0.4-0.6,0.5-1l0,0c0.4,0.6,0.9,0.8,1.6,0.7c0.6-0.1,1-0.3,1.3-0.8s0.4-1,0.3-1.5l-0.4-2.6
		l-7.1,1L11,72c0.1,0.6,0.3,1.1,0.8,1.4C12.3,73.9,12.8,74.1,13.4,74z M17,69.4l0.2,1.7c0,0.3,0,0.6-0.2,0.8
		c-0.2,0.2-0.4,0.4-0.7,0.4c-0.3,0-0.6,0-0.8-0.2s-0.4-0.4-0.4-0.8l-0.2-1.7L17,69.4z M14,69.9l0.3,1.8c0.1,0.4,0,0.7-0.2,0.9
		c-0.2,0.3-0.5,0.4-0.8,0.5c-0.3,0-0.6,0-0.9-0.2c-0.3-0.2-0.4-0.5-0.5-0.8l-0.3-1.8L14,69.9z"/>
	<polygon points="12.8,76.6 15,76 15.8,78.9 16.6,78.6 15.8,75.8 18,75.2 18.9,78.4 19.7,78.1 18.6,74.1 11.7,75.9 12.8,80 
		13.6,79.8 	"/>
	<path d="M17.3,83.4c0.3,0.4,0.7,0.7,1.1,0.9c0.5,0.2,0.9,0.1,1.4,0c0.6-0.2,0.9-0.6,1.2-1.2c0.2-0.6,0.2-1.1,0-1.7l-1-2.3l-6.7,2.6
		l0.3,0.9l2.7-1.1l0.4,0.9l-2,2.9l0.4,1l0,0L17.3,83.4L17.3,83.4z M19.6,80.3l0.6,1.4c0.1,0.3,0.1,0.7,0,1s-0.4,0.5-0.7,0.7
		c-0.3,0.1-0.7,0.1-1,0c-0.3-0.2-0.6-0.4-0.7-0.8l-0.5-1.4L19.6,80.3z"/>
	<path d="M21.8,91.1c0.9-0.5,1.5-1.2,1.8-2.1s0.1-1.8-0.4-2.8l-1.1-1.9l-6.2,3.5l1.1,1.9c0.5,1,1.2,1.6,2.1,1.8S20.9,91.6,21.8,91.1
		z M19.3,90.6c-0.7-0.2-1.2-0.6-1.6-1.4l-0.6-1.1l4.7-2.6l0.6,1.1c0.4,0.7,0.5,1.4,0.3,2.1s-0.6,1.2-1.4,1.6
		C20.6,90.6,19.9,90.8,19.3,90.6z"/>
	<path d="M26.6,91.5l-7.3,2.1l0.6,0.8l2-0.6l1.8,2.4l-1.1,1.7l0.6,0.8l4.1-6.5L26.6,91.5z M24.1,95.5l-1.4-1.9l3.3-1l0,0L24.1,95.5z
		"/>
	<polygon points="32.4,98.1 31.6,97.3 28.3,98.1 28.3,98 29.2,94.7 28.4,94 27.3,98.4 24.9,100.6 25.5,101.3 28,99 	"/>
	<path d="M33.9,99.4l-6.7,3.8l0.8,0.7l1.8-1l2.3,1.9l-0.7,1.9l0.8,0.7l2.5-7.2L33.9,99.4z M32.4,103.8l-1.8-1.5l3-1.7l0,0
		L32.4,103.8z"/>
	<path d="M39.1,103.2l-6.1,4.7l0.9,0.5l1.6-1.3l2.6,1.6l-0.4,2l0.9,0.5l1.5-7.5L39.1,103.2z M38.3,107.8l-2-1.3l2.7-2.1l0,0
		L38.3,107.8z"/>
	<polygon points="45.3,111.1 44.8,112.3 44.7,112.3 43.8,105.8 42.8,105.4 39.9,111.9 40.7,112.3 42.5,108.2 43,106.9 43.1,107 
		44,113.8 44.9,114.2 47.8,107.6 47,107.2 	"/>
	<path d="M54,114c-0.1,0.6-0.4,1-0.8,1.2c-0.4,0.3-0.8,0.3-1.4,0.2c-0.5-0.1-0.9-0.4-1.1-0.8c-0.2-0.4-0.3-0.9-0.1-1.5l1-4.4
		l-0.9-0.2l-1,4.4c-0.2,0.8-0.1,1.5,0.2,2.2c0.4,0.6,0.9,1,1.7,1.2s1.5,0.1,2.1-0.3s1-1,1.2-1.8l1-4.4l-0.9-0.2L54,114z"/>
	<polygon points="60.1,114.6 60.1,114.6 57.9,110.1 57,110 56.5,117.2 57.4,117.2 57.7,113 57.8,111.8 57.8,111.8 59.7,115.9 
		60.3,115.9 62.8,112.2 62.8,112.2 62.7,113.4 62.4,117.6 63.3,117.7 63.8,110.5 62.9,110.5 	"/>
	<path d="M67.1,110.3l-2.1,7.3l1-0.1l0.6-2l3-0.2l0.8,1.9l1-0.1l-3.2-6.9L67.1,110.3z M66.7,114.7l0.9-3.3l0,0l1.4,3.1L66.7,114.7z"
		/>
	<polygon points="75.2,109.1 70.4,110.1 70.5,110.9 72.5,110.5 73.7,116.7 74.6,116.5 73.4,110.4 75.4,110 	"/>
	<path d="M83.8,110.5c-0.3-0.2-0.7-0.3-1-0.3l0,0c0.5-0.5,0.6-1.1,0.4-1.7c-0.2-0.5-0.5-0.9-1.1-1.1c-0.5-0.2-1-0.2-1.6,0l-2.4,0.9
		l2.5,6.7l2.6-1c0.6-0.2,1-0.6,1.2-1.1c0.3-0.5,0.3-1,0.1-1.6C84.4,111,84.1,110.7,83.8,110.5z M79.3,108.8l1.6-0.6
		c0.3-0.1,0.6-0.1,0.9,0s0.5,0.3,0.6,0.6c0.1,0.3,0.1,0.5,0,0.8s-0.3,0.5-0.7,0.6l-1.6,0.6L79.3,108.8z M83.6,112.6
		c-0.1,0.3-0.4,0.5-0.7,0.6l-1.7,0.6l-0.8-2.2l1.7-0.6c0.3-0.1,0.6-0.1,0.9,0s0.5,0.4,0.6,0.6C83.7,112,83.7,112.3,83.6,112.6z"/>
	<polygon points="87.2,111.4 86.1,109.3 88.8,108 88.4,107.2 85.8,108.6 84.7,106.6 87.6,105.1 87.2,104.3 83.5,106.2 86.8,112.6 
		90.5,110.6 90.1,109.9 	"/>
	<path d="M93,105.5L93,105.5c0.3-0.4,0.6-0.8,0.6-1.3c0.1-0.5-0.1-1-0.3-1.4c-0.3-0.5-0.8-0.8-1.4-0.9s-1.1,0-1.7,0.4l-2,1.4l4,5.9
		l0.8-0.5l-1.6-2.4l0.8-0.6l3.2,1.3l0.9-0.6l0,0L93,105.5z M92,105.2l-1.2,0.8l-1.4-2.1l1.3-0.9c0.3-0.2,0.6-0.3,1-0.2
		c0.3,0.1,0.6,0.2,0.8,0.5c0.2,0.3,0.3,0.6,0.2,1S92.4,105,92,105.2z"/>
	<polygon points="96.7,101.2 96.7,97.1 96.7,97.1 95.8,97.9 95.8,102.7 95.8,102.8 93.4,100 92.7,100.6 97.4,106 98.1,105.4 
		96.7,103.8 96.7,102.1 100.7,103.1 101.5,102.4 101.5,102.3 	"/>
	<polygon points="102.5,100 100.8,98.5 102.8,96.3 102.1,95.7 100.2,97.9 98.5,96.4 100.7,94 100,93.4 97.2,96.5 102.5,101.3 
		105.3,98.2 104.7,97.6 	"/>
	<polygon points="106.3,95.5 101.2,91.8 100.7,92.5 106.5,96.7 108.8,93.5 108.1,92.9 	"/>
	<path d="M104.5,86.8l5,5.8l0.5-0.9l-1.4-1.5l1.4-2.6l2,0.3l0.5-0.9l-7.6-1.1L104.5,86.8z M105.7,86.8l3.4,0.5l-1.1,2.1L105.7,86.8
		L105.7,86.8z"/>
	<polygon points="108.1,78.6 112,80.1 113.3,80.6 113.3,80.6 106.9,81.9 106.5,82.9 113.2,85.5 113.5,84.6 109.3,83 108,82.6 
		108,82.5 114.8,81.2 115.1,80.3 108.4,77.8 	"/>
	<path d="M114.4,73.9l-4.8-1.1l-0.2,0.9l4.9,1.2c0.4,0.1,0.7,0.3,0.9,0.6c0.2,0.3,0.3,0.6,0.2,1c-0.2,0.7-0.6,1-1.4,1.1l0.2,0.9
		c0.5,0,1-0.2,1.4-0.5s0.6-0.7,0.8-1.3c0.2-0.6,0.1-1.2-0.3-1.7C115.7,74.4,115.2,74.1,114.4,73.9z"/>
	<path d="M114.9,67.1l-4.5-0.5l-0.1,0.9l4.5,0.5c0.6,0.1,1,0.3,1.3,0.6c0.3,0.3,0.4,0.8,0.4,1.3c-0.1,0.5-0.3,0.9-0.6,1.2
		c-0.4,0.3-0.8,0.4-1.4,0.3l-4.5-0.5l-0.1,0.9l4.5,0.5c0.8,0.1,1.5-0.1,2.1-0.5s0.9-1,1-1.8s-0.1-1.5-0.5-2
		C116.4,67.5,115.8,67.1,114.9,67.1z"/>
	<polygon points="111.3,60.9 110.4,61 110.5,65.9 111.3,65.9 111.3,63.9 117.6,63.8 117.6,62.8 111.3,62.9 	"/>
	<path d="M110.1,58.7l7.4,1.8l-0.1-1l-2-0.5l-0.4-3l1.8-0.9l-0.1-1l-6.8,3.6L110.1,58.7z M114.2,56.5l0.3,2.4l-3.4-0.8l0,0
		L114.2,56.5z"/>
	<polygon points="108.3,50.1 112.4,49 113.7,48.6 113.7,48.6 109.2,53.4 109.5,54.5 116.4,52.6 116.2,51.7 111.9,52.9 110.6,53.3 
		110.6,53.3 115.3,48.2 115,47.3 108.1,49.2 	"/>
	<path d="M108.3,42c0.3,0.1,0.6,0.1,0.9-0.1c0.3-0.2,0.5-0.4,0.6-0.7s0.1-0.6-0.1-0.9c-0.2-0.3-0.4-0.5-0.7-0.6
		c-0.3-0.1-0.6-0.1-0.9,0.1c-0.3,0.2-0.5,0.4-0.6,0.7s-0.1,0.6,0.1,0.9C107.8,41.7,108,41.8,108.3,42z"/>
</g>
</svg>
